<svg xmlns="http://www.w3.org/2000/svg" viewBox="0 0 156.66 51.11"><defs><style>.cls-1{fill:#fff;}.cls-2{fill:#bd073e;}.cls-3{fill:#de3980;}.cls-4{fill:#000015;}.cls-5{fill:#79c5d9;stroke:#cce7ed;stroke-width:0.29px;}.cls-5,.cls-6{stroke-miterlimit:10;}.cls-6{fill:none;stroke:#79c5d9;stroke-linecap:round;stroke-width:0.36px;}</style></defs><title>LogoBlanco</title><g id="Layer_2" data-name="Layer 2"><g id="Layer_1-2" data-name="Layer 1"><circle class="cls-1" cx="6.05" cy="20.96" r="5.4" transform="translate(-15.21 25.84) rotate(-86.8)"/><path class="cls-1" d="M97.11,15.58A17.6,17.6,0,1,0,106.62,48a4.14,4.14,0,0,0,8.09-1.23V32.19a4.63,4.63,0,0,0-.1-.92A17.63,17.63,0,0,0,97.11,15.58Zm0,26.93a9.33,9.33,0,1,1,9.33-9.33A9.34,9.34,0,0,1,97.11,42.51Z"/><path class="cls-1" d="M44.44,4.49A4.14,4.14,0,0,0,40.3,8.63v9.64A17.59,17.59,0,1,0,31,50.78a17.63,17.63,0,0,0,17.41-15,4.16,4.16,0,0,0,.19-1.23V8.63A4.14,4.14,0,0,0,44.44,4.49ZM31,42.51a9.33,9.33,0,1,1,9.32-9.33A9.35,9.35,0,0,1,31,42.51Z"/><path class="cls-1" d="M73.33,29.91a4.13,4.13,0,0,0-4.13,4.14v3.67h0a5.13,5.13,0,0,1-10.25,0V34a4.14,4.14,0,0,0-8.27,0v4.43a4.6,4.6,0,0,0,.08.84,13.4,13.4,0,0,0,26.61.12,4.34,4.34,0,0,0,.13-1V34.05A4.14,4.14,0,0,0,73.33,29.91Z"/><path class="cls-1" d="M154.52,37A11.39,11.39,0,0,0,136,29.78a11.4,11.4,0,0,0-18.63,8.8h0c0,.11,0,.22,0,.33v7.2a4.14,4.14,0,1,0,8.28,0v-7.2c0-.11,0-.22,0-.33h0a3.11,3.11,0,0,1,6.18-.55v8.08a4.14,4.14,0,1,0,8.28,0V38.58h.05c0-.16,0-.32,0-.47a3.11,3.11,0,0,1,6.19.47v7.07a4.14,4.14,0,1,0,8.28,0V37.92A3.85,3.85,0,0,0,154.52,37Z"/><path class="cls-1" d="M6,29.69a4.14,4.14,0,0,0-4.14,4.14V46.89a4.14,4.14,0,0,0,8.28,0V33.83A4.14,4.14,0,0,0,6,29.69Z"/><path class="cls-2" d="M5.9,15.09A5.9,5.9,0,1,0,11.8,21,5.9,5.9,0,0,0,5.9,15.09ZM8.83,20.7a1.45,1.45,0,0,1-.37.79c-.22.22-.45.43-.68.64l-1.9,1.65a.12.12,0,0,1-.19,0l-.62-.51L3.26,21.64a1.51,1.51,0,0,1-.52-1,1.66,1.66,0,0,1,0-.27,2.63,2.63,0,0,1,0-.34,1.45,1.45,0,0,1,.22-.6,1.71,1.71,0,0,1,1.75-.79,1.39,1.39,0,0,1,.57.24,5.89,5.89,0,0,1,.45.42s.07.05.11,0L6,19.18a1.62,1.62,0,0,1,1.08-.53,1.48,1.48,0,0,1,.84.18,1.64,1.64,0,0,1,.93,1.24,1.23,1.23,0,0,1,0,.31A2.58,2.58,0,0,1,8.83,20.7Z"/><ellipse class="cls-1" cx="136.19" cy="11.41" rx="19.54" ry="11.41"/><path class="cls-3" d="M119.83,11.55c0,2.27,1.59,1.17,1.51,1.7-.34,2-1.25,3.5-2.33,3.5-1.36,0-3.12-2.33-3.12-5.2s1.76-5.2,3.12-5.2c1.1,0,2,1.53,2.35,3.64C121.43,10.48,119.83,9.52,119.83,11.55Z"/><path class="cls-3" d="M153.37,11.55c0,2.27-1.59,1.17-1.5,1.7.33,2,1.25,3.5,2.32,3.5,1.36,0,2.47-2.33,2.47-5.2s-1.11-5.2-2.47-5.2c-1.1,0-2,1.53-2.34,3.64C151.77,10.48,153.37,9.52,153.37,11.55Z"/><ellipse class="cls-4" cx="136.21" cy="11.4" rx="12" ry="7.01"/><circle class="cls-5" cx="130.98" cy="10.38" r="1.41"/><circle class="cls-5" cx="140.34" cy="10.38" r="1.41"/><path class="cls-6" d="M133.24,14.78a5,5,0,0,0,5.83,0"/></g></g></svg>