<svg xmlns="http://www.w3.org/2000/svg" viewBox="0 0 155.73 51.22"><defs><style>.cls-1{fill:#fff;}.cls-2{fill:#0b0e1f;}.cls-3{fill:#b41b3b;}.cls-4{fill:#d42c72;}.cls-5{fill:#6cbccc;}.cls-6{fill:#c6e2e7;}</style></defs><title>LogoNegro</title><g id="Layer_2" data-name="Layer 2"><g id="Layer_1-2" data-name="Layer 1"><circle class="cls-1" cx="6.27" cy="22.35" r="4.15"/><path class="cls-2" d="M96.47,15.78A17.56,17.56,0,1,0,106,48.09,4.13,4.13,0,0,0,114,46.87V32.34a3.91,3.91,0,0,0-.11-.91A17.57,17.57,0,0,0,96.47,15.78Zm0,26.85a9.3,9.3,0,1,1,9.3-9.3A9.31,9.31,0,0,1,96.47,42.63Z"/><path class="cls-2" d="M43.93,4.71a4.12,4.12,0,0,0-4.12,4.13v9.61a17.56,17.56,0,1,0,8.06,17.44,3.92,3.92,0,0,0,.19-1.24V8.84A4.13,4.13,0,0,0,43.93,4.71ZM30.51,42.63a9.3,9.3,0,1,1,9.3-9.3A9.31,9.31,0,0,1,30.51,42.63Z"/><path class="cls-2" d="M72.76,30.07a4.12,4.12,0,0,0-4.13,4.12v3.66h0a5.11,5.11,0,1,1-10.22,0V34.1a4.13,4.13,0,1,0-8.25,0v4.41a4.8,4.8,0,0,0,.08.85,13.36,13.36,0,0,0,26.54.12,4.34,4.34,0,0,0,.13-1V34.19A4.12,4.12,0,0,0,72.76,30.07Z"/><path class="cls-2" d="M153.73,37.09a11.35,11.35,0,0,0-18.45-7.15,11.36,11.36,0,0,0-18.58,8.77h0c0,.11,0,.22,0,.33v7.18a4.13,4.13,0,1,0,8.25,0V39c0-.11,0-.22,0-.33h0a3.11,3.11,0,0,1,6.17-.54v8a4.13,4.13,0,0,0,8.26,0V38.71h.05c0-.15,0-.31,0-.47a3.11,3.11,0,0,1,6.18.47v7.06a4.13,4.13,0,0,0,8.25,0V38.05A3.83,3.83,0,0,0,153.73,37.09Z"/><path class="cls-2" d="M5.61,29.85A4.13,4.13,0,0,0,1.48,34V47a4.13,4.13,0,0,0,8.26,0V34A4.13,4.13,0,0,0,5.61,29.85Z"/><path class="cls-3" d="M6,15.93a6,6,0,1,0,6,6A6,6,0,0,0,6,15.93Zm3,5.72a1.4,1.4,0,0,1-.38.8,7.17,7.17,0,0,1-.69.66L6,24.79a.12.12,0,0,1-.2,0l-.63-.52c-.62-.55-1.24-1.1-1.85-1.66a1.59,1.59,0,0,1-.53-1,2.07,2.07,0,0,1,0-.28,3.16,3.16,0,0,1,0-.36A1.61,1.61,0,0,1,3,20.4a1.77,1.77,0,0,1,1.8-.81,1.51,1.51,0,0,1,.58.25c.16.13.3.28.45.42s.07,0,.12,0a1.07,1.07,0,0,1,.14-.16,1.61,1.61,0,0,1,1.1-.54A1.76,1.76,0,0,1,9,21a1.34,1.34,0,0,1,0,.65Z"/><ellipse class="cls-1" cx="136.65" cy="11.17" rx="18.38" ry="10.74"/><path class="cls-4" d="M121.25,11.29c0,2.15,1.5,1.11,1.42,1.61-.31,1.91-1.17,3.28-2.19,3.28-1.28,0-2.93-2.18-2.93-4.89s1.65-4.89,2.93-4.89c1,0,1.92,1.44,2.21,3.43C122.76,10.29,121.25,9.38,121.25,11.29Z"/><path class="cls-4" d="M152,11.29c0,2.15-1.5,1.11-1.42,1.61.31,1.91,1.17,3.28,2.19,3.28,1.28,0,2.93-2.18,2.93-4.89s-1.65-4.89-2.93-4.89c-1,0-1.92,1.44-2.21,3.43C150.49,10.29,152,9.38,152,11.29Z"/><ellipse class="cls-2" cx="136.66" cy="11.16" rx="11.29" ry="6.6"/><circle class="cls-5" cx="131.74" cy="10.2" r="1.33"/><path class="cls-6" d="M131.74,11.77a1.57,1.57,0,1,1,1.58-1.57A1.57,1.57,0,0,1,131.74,11.77Zm0-2.65a1.08,1.08,0,1,0,1.09,1.08A1.08,1.08,0,0,0,131.74,9.12Z"/><circle class="cls-5" cx="140.55" cy="10.2" r="1.33"/><path class="cls-6" d="M140.55,11.77a1.57,1.57,0,1,1,1.57-1.57A1.57,1.57,0,0,1,140.55,11.77Zm0-2.65a1.08,1.08,0,1,0,1.08,1.08A1.08,1.08,0,0,0,140.55,9.12Z"/><path class="cls-5" d="M136.21,15.43a3.52,3.52,0,0,1-2.57-.89.31.31,0,0,1,0-.44.31.31,0,0,1,.43,0c.07.07,1.55,1.58,5.13-.07a.32.32,0,0,1,.41.15.31.31,0,0,1-.15.41A7.8,7.8,0,0,1,136.21,15.43Z"/><path class="cls-2" d="M136.64.86c10.05,0,18.23,4.65,18.23,10.38s-8.18,10.37-18.23,10.37S118.4,17,118.4,11.24,126.58.86,136.64.86m0-.86c-10.53,0-19.1,5-19.1,11.24s8.57,11.23,19.1,11.23,19.09-5,19.09-11.23S147.16,0,136.64,0Z"/></g></g></svg>