<svg xmlns="http://www.w3.org/2000/svg" viewBox="0 0 118.48 140.5"><defs><style>.cls-1{fill:#fff;fill-rule:evenodd;}</style></defs><title>IconoAlertas</title><g id="Layer_2" data-name="Layer 2"><g id="Layer_1-2" data-name="Layer 1"><path class="cls-1" d="M33.6,22.33A11.27,11.27,0,1,0,22.33,33.6,11.29,11.29,0,0,0,33.6,22.33Zm-17,0a5.78,5.78,0,1,1,5.78,5.78,5.78,5.78,0,0,1-5.78-5.78Z"/><path class="cls-1" d="M98.06,71.9C91,71.9,85,73.66,81.35,76.46l-9.84-2.19a2.74,2.74,0,1,0-1.19,5.35l7.54,1.68A6.81,6.81,0,0,0,77.64,83c0,3.73,3,6.91,7.94,8.9l-4.39,4.52a2.74,2.74,0,1,0,3.93,3.83l6.5-6.68a38.71,38.71,0,0,0,6.44.52c11.64,0,20.42-4.77,20.42-11.09S109.7,71.9,98.06,71.9Zm0,16.7c-9,0-14.93-3.38-14.93-5.61a2.32,2.32,0,0,1,.76-1.51,2.72,2.72,0,0,0,.24-.24c2.05-1.91,7.12-3.86,13.93-3.86,9,0,14.93,3.38,14.93,5.61S107,88.6,98.06,88.6Z"/><path class="cls-1" d="M65.43,120.5l4.4-4.52a2.75,2.75,0,0,0-3.94-3.83l-6.49,6.68a38.74,38.74,0,0,0-6.45-.52c-11.64,0-20.42,4.77-20.42,11.09S41.31,140.5,53,140.5s20.42-4.77,20.42-11.1c0-3.73-3.05-6.91-7.94-8.9ZM53,135C44,135,38,131.63,38,129.4s6-5.6,14.93-5.6,14.93,3.37,14.93,5.6S61.93,135,53,135Z"/><path class="cls-1" d="M48.88,74.85a2.52,2.52,0,0,0,.6.07,2.75,2.75,0,0,0,.6-5.43l-7.55-1.68a6.73,6.73,0,0,0,.22-1.68C42.75,61,37,57.51,30.48,56L42.72,31.43l.06-.13a22.06,22.06,0,0,0,1.88-9A22.33,22.33,0,0,0,0,22.33a22.06,22.06,0,0,0,1.88,9l.06.13L14.19,56C7.62,57.57,1.91,61.05,1.91,66.13c0,6.32,8.78,11.09,20.42,11.09,7.07,0,13.08-1.76,16.71-4.56ZM5.49,22.33A16.84,16.84,0,1,1,37.78,29L22.33,60,6.88,29a16.77,16.77,0,0,1-1.39-6.71ZM7.4,66.13c0-1.44,3.57-3.95,9.32-5.1l3.15,6.32a2.74,2.74,0,0,0,4.91,0L28,61c5.81,1.1,9.31,3.6,9.31,5.11a2.39,2.39,0,0,1-.76,1.51,1.81,1.81,0,0,0-.24.24c-2,1.91-7.12,3.85-13.93,3.85-9,0-14.93-3.37-14.93-5.6Z"/><path class="cls-1" d="M75.51,103.45a2.75,2.75,0,1,0,2.74,2.75,2.75,2.75,0,0,0-2.74-2.75Z"/><path class="cls-1" d="M60.2,77.3a2.75,2.75,0,1,0-2.75-2.74A2.74,2.74,0,0,0,60.2,77.3Z"/></g></g></svg>