<svg xmlns="http://www.w3.org/2000/svg" viewBox="0 0 273.69 109.78"><defs><style>.cls-1,.cls-3{fill:#fff;}.cls-1,.cls-2{stroke:#fff;stroke-miterlimit:10;}.cls-1{stroke-width:2px;}.cls-2{fill:none;stroke-width:5px;}.cls-4{fill:#e0345e;}</style></defs><title>IconoMediciones</title><g id="Layer_2" data-name="Layer 2"><g id="Layer_1-2" data-name="Layer 1"><line class="cls-1" x1="4.67" y1="108.78" x2="69.42" y2="108.78"/><line class="cls-1" x1="99.93" y1="108.78" x2="266.78" y2="108.78"/><path class="cls-2" d="M6.92,88s24-40.52,43-40.52S76.18,88,96.86,88C121.23,88,134.78,23,156.62,23S183.74,88,209.94,88c28.64,0,29.68-81,58.24-81"/><path class="cls-3" d="M49.91,52.85a5.42,5.42,0,1,1,5.42-5.41A5.42,5.42,0,0,1,49.91,52.85Z"/><path class="cls-4" d="M49.91,43.52A3.92,3.92,0,1,1,46,47.44a3.91,3.91,0,0,1,3.92-3.92m0-3a6.92,6.92,0,1,0,6.92,6.92,6.93,6.93,0,0,0-6.92-6.92Z"/><path class="cls-3" d="M6.92,93.37A5.42,5.42,0,1,1,12.33,88,5.42,5.42,0,0,1,6.92,93.37Z"/><path class="cls-4" d="M6.92,84A3.92,3.92,0,1,1,3,88,3.91,3.91,0,0,1,6.92,84m0-3A6.92,6.92,0,1,0,13.83,88,6.92,6.92,0,0,0,6.92,81Z"/><path class="cls-3" d="M96,93.37A5.42,5.42,0,1,1,101.43,88,5.42,5.42,0,0,1,96,93.37Z"/><path class="cls-4" d="M96,84A3.92,3.92,0,1,1,92.1,88,3.91,3.91,0,0,1,96,84m0-3A6.92,6.92,0,1,0,102.93,88,6.92,6.92,0,0,0,96,81Z"/><path class="cls-3" d="M156.62,28.42A5.42,5.42,0,1,1,162,23,5.42,5.42,0,0,1,156.62,28.42Z"/><path class="cls-4" d="M156.62,19.09A3.92,3.92,0,1,1,152.7,23a3.92,3.92,0,0,1,3.92-3.92m0-3A6.92,6.92,0,1,0,163.54,23a6.92,6.92,0,0,0-6.92-6.92Z"/><path class="cls-3" d="M209.94,93.37A5.42,5.42,0,1,1,215.36,88,5.42,5.42,0,0,1,209.94,93.37Z"/><path class="cls-4" d="M209.94,84A3.92,3.92,0,1,1,206,88,3.92,3.92,0,0,1,209.94,84m0-3A6.92,6.92,0,1,0,216.86,88,6.93,6.93,0,0,0,209.94,81Z"/><path class="cls-3" d="M266.78,12.33a5.42,5.42,0,1,1,5.41-5.41A5.42,5.42,0,0,1,266.78,12.33Z"/><path class="cls-4" d="M266.78,3a3.92,3.92,0,1,1-3.92,3.92A3.91,3.91,0,0,1,266.78,3m0-3a6.92,6.92,0,1,0,6.91,6.92A6.92,6.92,0,0,0,266.78,0Z"/></g></g></svg>