<svg xmlns="http://www.w3.org/2000/svg" viewBox="0 0 140.58 133.84"><defs><style>.cls-1{fill:#69a1fb;}</style></defs><title>Monitoreo</title><g id="Layer_2" data-name="Layer 2"><g id="Layer_1-2" data-name="Layer 1"><path class="cls-1" d="M126.52,61.11V56.85c0-11.75-8.93-21.32-19.91-21.32-10.67,0-19.6,9.28-19.92,20.68h.14l-.14,0v46.18c0,14.76-11,26.75-24.6,26.75s-24.6-12-24.6-26.75v-4c3.4,0,7-2.46,7-9.37v-5.9c15-3.84,25.77-16.75,25.77-31.39V46.86H65.6l-.09-30.49A11.73,11.73,0,0,0,55.87,4.9a7,7,0,1,0-.16,4.78,7,7,0,0,1,5.1,6.7l.11,30.48H56.23v5A18.62,18.62,0,0,1,42.75,69.3a21.32,21.32,0,0,1-12.89,0A18.62,18.62,0,0,1,16.4,51.82v-5h-7V16.4a7,7,0,0,1,5.2-6.75,7.08,7.08,0,1,0-.14-4.76A11.7,11.7,0,0,0,4.69,16.4V46.86H0v4.88c0,14.65,10.74,27.57,25.77,31.4V89c0,6.91,3.63,9.37,7,9.37v4c0,17.34,13.14,31.43,29.29,31.43s29.29-14.11,29.29-31.43V56.35h0c.23-8.89,7.07-16.13,15.23-16.13,8.39,0,15.23,7.46,15.23,16.64v4.25a16.4,16.4,0,1,0,4.68,0ZM49.2,9.37A2.34,2.34,0,1,1,51.55,7,2.34,2.34,0,0,1,49.2,9.37ZM21.09,4.69A2.34,2.34,0,1,1,18.74,7,2.34,2.34,0,0,1,21.09,4.69ZM4.69,51.74v-.19h7v.27A23.26,23.26,0,0,0,28.44,73.75a26.1,26.1,0,0,0,15.74,0A23.28,23.28,0,0,0,60.92,51.82v-.27H65.6v.19c0,13-10,24.5-23.89,27.27a33.51,33.51,0,0,1-9.89.49A32,32,0,0,1,28.58,79C14.73,76.24,4.69,64.77,4.69,51.74ZM30.46,89v-5l.57.05.7.06c1.11.1,2.23.17,3.35.17h.12c1.13,0,2.24-.07,3.34-.17l.73-.06.56-.05v5c0,1.4-.24,4.68-2.34,4.68H32.8C30.69,93.72,30.46,90.44,30.46,89Zm93.72,0A11.72,11.72,0,1,1,135.9,77.32,11.72,11.72,0,0,1,124.18,89Z"/><path class="cls-1" d="M124.18,70.29a7,7,0,1,0,7,7A7,7,0,0,0,124.18,70.29Zm0,9.37a2.34,2.34,0,1,1,2.34-2.34A2.34,2.34,0,0,1,124.18,79.66Z"/></g></g></svg>