<svg xmlns="http://www.w3.org/2000/svg" viewBox="0 0 136.23 76.77"><defs><style>.cls-1{fill:#2f607c;}</style></defs><title>IconoIduam</title><g id="Layer_2" data-name="Layer 2"><g id="Layer_1-2" data-name="Layer 1"><path class="cls-1" d="M68.12,2.55c17.73,0,34.38,3.88,46.89,10.93,12,6.78,18.67,15.63,18.67,24.9S127.05,56.51,115,63.29C102.5,70.34,85.85,74.22,68.12,74.22S33.73,70.34,21.23,63.29C9.18,56.51,2.55,47.66,2.55,38.38s6.63-18.12,18.68-24.9c12.5-7,29.15-10.93,46.89-10.93m0-2.55C30.56,0,0,17.22,0,38.38S30.56,76.77,68.12,76.77s68.11-17.22,68.11-38.39S105.68,0,68.12,0Z"/><path class="cls-1" d="M27.28,7.44l.23-.09Z"/><path class="cls-1" d="M136.23,38.25c0-12.34-10.33-23.34-26.34-30.39a55.71,55.71,0,0,1,18.2,12.45,2,2,0,0,0-.24,0c-3.94,0-7.28,5.47-8.4,13-.26,1.76,5.46-1.68,5.46,5.58,0,8.14-5.69,4.19-5.38,6.1,1.13,6.85,4.11,11.87,7.67,12.42C132.93,51.74,136.23,45.21,136.23,38.25Z"/><path class="cls-1" d="M68.12,63.41C91.81,63.41,111,52.19,111,38.35S91.81,13.29,68.12,13.29s-42.9,11.22-42.9,25.06S44.43,63.41,68.12,63.41ZM84.57,28.73a6,6,0,1,1-6,6A6,6,0,0,1,84.57,28.73Zm-26,20.44c.39.29,9.58,7.08,18.53-.08h0a1.69,1.69,0,0,1,2.35.26,1.67,1.67,0,0,1,.36,1.23,1.63,1.63,0,0,1-.62,1.12,17.15,17.15,0,0,1-10.9,4,21.43,21.43,0,0,1-11.75-3.84,1.67,1.67,0,0,1,2-2.66ZM51.13,28.73a6,6,0,1,1-6,6A6,6,0,0,1,51.13,28.73Z"/><path class="cls-1" d="M108.72,7.35l.23.09Z"/><path class="cls-1" d="M16.7,45c.31-1.91-5.38,2-5.38-6.1,0-7.26,5.72-3.82,5.46-5.58-1.12-7.53-4.46-13-8.4-13l-.24,0c4.48-4.85,10.72-9.09,18.2-12.45C10.33,14.91,0,25.91,0,38.25c0,7,3.3,13.49,9,19.13C12.6,56.83,15.57,51.81,16.7,45Z"/></g></g></svg>